<svg width="18" height="14" viewBox="0 0 18 14" fill="none" xmlns="http://www.w3.org/2000/svg">
<path d="M0 2.5295V4.5H2.814L0 2.5295ZM2.332 13.5H6.5V10.5815L2.332 13.5ZM11.5 10.582V13.5H15.6675L11.5 10.582ZM0 9.5V11.4705L2.815 9.5H0ZM15.6685 0.5H11.5V3.4185L15.6685 0.5ZM18 11.471V9.5H15.1845L18 11.471ZM18 4.5V2.5295L15.1855 4.5H18ZM6.5 0.5H2.332L6.5 3.4185V0.5Z" fill="#00247D"/>
<path d="M12.5696 9.50012L17.4256 12.9006C17.6624 12.656 17.8327 12.355 17.9206 12.0261L14.3131 9.50012H12.5696ZM6.49963 9.50012H5.42913L0.573625 12.9001C0.834125 13.1651 1.16812 13.3546 1.54262 13.4426L6.49963 9.97162V9.50012ZM11.4996 4.50012H12.5701L17.4256 1.10012C17.1604 0.831518 16.8247 0.643439 16.4571 0.557617L11.4996 4.02862V4.50012ZM5.42913 4.50012L0.573625 1.10012C0.336709 1.34468 0.166156 1.64569 0.078125 1.97462L3.68563 4.50012H5.42913Z" fill="#CF1B2B"/>
<path d="M18 8.5H10.5V13.5H11.5V10.582L15.6675 13.5H16C16.2656 13.4998 16.5285 13.4466 16.7733 13.3437C17.0181 13.2408 17.24 13.0901 17.426 12.9005L12.57 9.5H14.3135L17.921 12.026C17.9675 11.8575 18 11.683 18 11.5V11.471L15.1845 9.5H18V8.5ZM0 8.5V9.5H2.815L0 11.4705V11.5C0 12.0455 0.2195 12.539 0.574 12.9L5.4295 9.5H6.5V9.9715L1.543 13.442C1.69 13.477 1.842 13.5 2 13.5H2.332L6.5 10.5815V13.5H7.5V8.5H0ZM18 2.5C18.0005 1.97596 17.7942 1.47289 17.426 1.1L12.5705 4.5H11.5V4.0285L16.4575 0.5575C16.3077 0.520759 16.1542 0.501464 16 0.5H15.6685L11.5 3.4185V0.5H10.5V5.5H18V4.5H15.1855L18 2.5295V2.5ZM6.5 0.5V3.4185L2.332 0.5H2C1.73437 0.500304 1.47147 0.553517 1.22664 0.656533C0.9818 0.75955 0.759938 0.910305 0.574 1.1L5.4295 4.5H3.686L0.0785 1.9745C0.0290784 2.1454 0.00267879 2.32212 0 2.5L0 2.5295L2.814 4.5H0V5.5H7.5V0.5H6.5Z" fill="#EEEEEE"/>
<path d="M10.5 5.5V0.5H7.5V5.5H0V8.5H7.5V13.5H10.5V8.5H18V5.5H10.5Z" fill="#CF1B2B"/>
</svg>
