<svg width="21" height="20" viewBox="0 0 21 20" fill="none" xmlns="http://www.w3.org/2000/svg">
<path d="M6.63984 0H15.0398C18.2398 0 20.8398 2.6 20.8398 5.8V14.2C20.8398 15.7383 20.2288 17.2135 19.1411 18.3012C18.0534 19.3889 16.5781 20 15.0398 20H6.63984C3.43984 20 0.839844 17.4 0.839844 14.2V5.8C0.839844 4.26174 1.45091 2.78649 2.53862 1.69878C3.62634 0.61107 5.10159 0 6.63984 0ZM6.43984 2C5.48506 2 4.56939 2.37928 3.89426 3.05442C3.21913 3.72955 2.83984 4.64522 2.83984 5.6V14.4C2.83984 16.39 4.44984 18 6.43984 18H15.2398C16.1946 18 17.1103 17.6207 17.7854 16.9456C18.4606 16.2705 18.8398 15.3548 18.8398 14.4V5.6C18.8398 3.61 17.2298 2 15.2398 2H6.43984ZM16.0898 3.5C16.4214 3.5 16.7393 3.6317 16.9737 3.86612C17.2081 4.10054 17.3398 4.41848 17.3398 4.75C17.3398 5.08152 17.2081 5.39946 16.9737 5.63388C16.7393 5.8683 16.4214 6 16.0898 6C15.7583 6 15.4404 5.8683 15.206 5.63388C14.9715 5.39946 14.8398 5.08152 14.8398 4.75C14.8398 4.41848 14.9715 4.10054 15.206 3.86612C15.4404 3.6317 15.7583 3.5 16.0898 3.5ZM10.8398 5C12.1659 5 13.4377 5.52678 14.3754 6.46447C15.3131 7.40215 15.8398 8.67392 15.8398 10C15.8398 11.3261 15.3131 12.5979 14.3754 13.5355C13.4377 14.4732 12.1659 15 10.8398 15C9.51376 15 8.24199 14.4732 7.30431 13.5355C6.36663 12.5979 5.83984 11.3261 5.83984 10C5.83984 8.67392 6.36663 7.40215 7.30431 6.46447C8.24199 5.52678 9.51376 5 10.8398 5ZM10.8398 7C10.0442 7 9.28113 7.31607 8.71852 7.87868C8.15591 8.44129 7.83984 9.20435 7.83984 10C7.83984 10.7956 8.15591 11.5587 8.71852 12.1213C9.28113 12.6839 10.0442 13 10.8398 13C11.6355 13 12.3986 12.6839 12.9612 12.1213C13.5238 11.5587 13.8398 10.7956 13.8398 10C13.8398 9.20435 13.5238 8.44129 12.9612 7.87868C12.3986 7.31607 11.6355 7 10.8398 7Z" fill="white"/>
</svg>
