<svg width="41" height="41" viewBox="0 0 41 41" fill="none" xmlns="http://www.w3.org/2000/svg">
<path d="M38.6152 39.0331C38.6152 39.1876 38.5542 39.3357 38.4454 39.445C38.3367 39.5542 38.1893 39.6155 38.0355 39.6155H1.96532C1.88879 39.6155 1.81301 39.6003 1.74237 39.5707C1.67172 39.5411 1.60761 39.4978 1.55373 39.4431L1.55026 39.4408L1.54214 39.4268C1.48434 39.3614 1.44194 39.2838 1.41808 39.1997C1.41035 39.1733 1.40495 39.1465 1.40186 39.1193C1.39722 39.0902 1.38446 39.0646 1.38446 39.0343C1.38446 38.9877 1.40069 38.9469 1.41113 38.9038C1.41461 38.8875 1.40765 38.8712 1.41344 38.8549L5.07716 27.5385C5.10545 27.4512 5.15392 27.3717 5.21861 27.3067L25.0641 7.36714C25.085 7.33452 25.1001 7.29958 25.1279 7.27046L29.4629 2.91515C29.8019 2.5755 30.2612 2.38477 30.74 2.38477C31.2188 2.38477 31.678 2.5755 32.0171 2.91515L38.0865 9.01305C38.4274 9.35551 38.6152 9.81096 38.6152 10.2955C38.6152 10.7801 38.4274 11.2367 38.0865 11.5792L33.8478 15.8378C33.8269 15.8693 33.813 15.9054 33.7852 15.9333L13.9709 35.9743C13.9026 36.0435 13.8181 36.0943 13.7252 36.1222L5.94208 38.4519H38.0355C38.1891 38.4519 38.3364 38.5131 38.445 38.622C38.5537 38.731 38.6149 38.8789 38.6152 39.0331ZM31.2391 14.2012L13.0515 32.2398L13.7205 34.5718L32.555 15.5233L31.2391 14.2012ZM12.1623 31.4862L30.4206 13.3788L27.5951 10.5401L9.50029 28.7675V31.4862H12.1623ZM8.77798 27.8461L26.7754 9.71661L25.5708 8.50635L6.77569 27.3895L8.77798 27.8461ZM11.9629 32.651H8.92059C8.76684 32.651 8.61939 32.5896 8.51068 32.4804C8.40196 32.3712 8.34089 32.2231 8.34089 32.0686V28.941L6.01396 28.4098L2.85691 38.1595L12.6979 35.2136L11.9629 32.651ZM37.4558 10.2955C37.4558 10.122 37.3886 9.96006 37.2668 9.83659L31.1974 3.73868C31.0758 3.6174 30.9113 3.54935 30.74 3.54935C30.5686 3.54935 30.4042 3.6174 30.2826 3.73868L26.3731 7.6665L33.3562 14.6823L37.2657 10.7545C37.3262 10.6946 37.3742 10.6231 37.4069 10.5443C37.4395 10.4655 37.4562 10.3809 37.4558 10.2955Z" fill="#38009E"/>
<path d="M26.6579 6.13069L34.8684 14.3414M4.07895 29.7366L11.2632 36.921M8.18421 32.8156L30.7632 10.2361M3.05263 29.7366L31.7895 1L40 9.20972L11.2632 37.9473L1 40L3.05263 29.7366Z" stroke="#38009E" stroke-width="2" stroke-linecap="round" stroke-linejoin="round"/>
</svg>
