<svg width="43" height="32" viewBox="0 0 43 32" fill="none" xmlns="http://www.w3.org/2000/svg">
<path d="M10.4337 23.8747L11.6674 19.827H16.9279L18.1617 23.8747H21.4718L16.2113 8.12735H12.5678L7.28369 23.8747H10.4337ZM14.3791 11.1382L16.3058 17.5065H12.3132L14.2399 11.1382H14.3791ZM26.8714 11.4742C24.0916 11.4742 22.2698 13.4824 22.2698 16.8371V18.6615C22.2698 22.0189 24.0679 24.0244 26.8373 24.0244C28.6144 24.0244 30.0451 23.1581 30.4257 21.9139H30.5753V23.8747H33.5626V7.29785H30.5176V13.4929H30.3784C29.9059 12.246 28.5934 11.4742 26.8714 11.4742ZM27.8873 13.8971C29.4098 13.8971 30.5176 15.0521 30.5176 16.8844V18.4646C30.5176 20.4596 29.4781 21.6146 27.9346 21.6146C26.3648 21.6146 25.3831 20.436 25.3831 18.3386V17.1495C25.3831 15.0626 26.3543 13.8971 27.8873 13.8971Z" fill="#38009E"/>
<path d="M37.4712 2.875C38.1674 2.875 38.8351 3.15156 39.3273 3.64384C39.8196 4.13613 40.0962 4.80381 40.0962 5.5V26.5C40.0962 27.1962 39.8196 27.8639 39.3273 28.3562C38.8351 28.8484 38.1674 29.125 37.4712 29.125H5.97119C5.275 29.125 4.60732 28.8484 4.11504 28.3562C3.62275 27.8639 3.34619 27.1962 3.34619 26.5V5.5C3.34619 4.80381 3.62275 4.13613 4.11504 3.64384C4.60732 3.15156 5.275 2.875 5.97119 2.875H37.4712ZM5.97119 0.25C4.5788 0.25 3.24345 0.803123 2.25888 1.78769C1.27431 2.77226 0.721191 4.10761 0.721191 5.5L0.721191 26.5C0.721191 27.8924 1.27431 29.2277 2.25888 30.2123C3.24345 31.1969 4.5788 31.75 5.97119 31.75H37.4712C38.8636 31.75 40.1989 31.1969 41.1835 30.2123C42.1681 29.2277 42.7212 27.8924 42.7212 26.5V5.5C42.7212 4.10761 42.1681 2.77226 41.1835 1.78769C40.1989 0.803123 38.8636 0.25 37.4712 0.25H5.97119Z" fill="#38009E"/>
</svg>
