<svg width="24" height="24" viewBox="0 0 24 24" fill="none" xmlns="http://www.w3.org/2000/svg">
<path d="M9 22C8.45 22 8 21.55 8 21V18H4C3.46957 18 2.96086 17.7893 2.58579 17.4142C2.21071 17.0391 2 16.5304 2 16V4C2 3.46957 2.21071 2.96086 2.58579 2.58579C2.96086 2.21071 3.46957 2 4 2H20C20.5304 2 21.0391 2.21071 21.4142 2.58579C21.7893 2.96086 22 3.46957 22 4V16C22 17.11 21.11 18 20 18H13.9L10.2 21.71C10 21.9 9.75 22 9.5 22H9ZM10 16V19.08L13.08 16H20V4H4V16H10Z" fill="#060011"/>
<path d="M16.4758 6.8821L16.1324 6.53619C15.839 6.24071 15.3611 6.24079 15.0678 6.53636L11.0016 10.6343C10.7085 10.9296 10.2311 10.9299 9.93761 10.635L8.93222 9.62479C8.6388 9.32995 8.16148 9.33023 7.8684 9.6254L7.5243 9.97195C7.23407 10.2643 7.2339 10.7359 7.52391 11.0284L9.93725 13.4626C10.2307 13.7586 10.7092 13.7586 11.0026 13.4625L16.4764 7.93843C16.7663 7.6459 16.766 7.17434 16.4758 6.8821Z" fill="#08CF07"/>
</svg>
