<svg width="24" height="24" viewBox="0 0 24 24" fill="none" xmlns="http://www.w3.org/2000/svg">
<path d="M12 16C12.2267 16 12.4168 15.9232 12.5704 15.7696C12.724 15.616 12.8005 15.4261 12.8 15.2C12.7995 14.9739 12.7227 14.784 12.5696 14.6304C12.4165 14.4768 12.2267 14.4 12 14.4C11.7733 14.4 11.5835 14.4768 11.4304 14.6304C11.2773 14.784 11.2005 14.9739 11.2 15.2C11.1995 15.4261 11.2763 15.6163 11.4304 15.7704C11.5845 15.9245 11.7744 16.0011 12 16ZM12 12.8C12.2267 12.8 12.4168 12.7232 12.5704 12.5696C12.724 12.416 12.8005 12.2261 12.8 12V8.8C12.8 8.57333 12.7232 8.38347 12.5696 8.2304C12.416 8.07733 12.2261 8.00053 12 8C11.7739 7.99947 11.584 8.07627 11.4304 8.2304C11.2768 8.38453 11.2 8.5744 11.2 8.8V12C11.2 12.2267 11.2768 12.4168 11.4304 12.5704C11.584 12.724 11.7739 12.8005 12 12.8ZM12 20C10.8933 20 9.85333 19.7899 8.88 19.3696C7.90667 18.9493 7.06 18.3795 6.34 17.66C5.62 16.9405 5.05013 16.0939 4.6304 15.12C4.21067 14.1461 4.00053 13.1061 4 12C3.99947 10.8939 4.2096 9.85387 4.6304 8.88C5.0512 7.90613 5.62107 7.05947 6.34 6.34C7.05893 5.62053 7.9056 5.05067 8.88 4.6304C9.8544 4.21013 10.8944 4 12 4C13.1056 4 14.1456 4.21013 15.12 4.6304C16.0944 5.05067 16.9411 5.62053 17.66 6.34C18.3789 7.05947 18.9491 7.90613 19.3704 8.88C19.7917 9.85387 20.0016 10.8939 20 12C19.9984 13.1061 19.7883 14.1461 19.3696 15.12C18.9509 16.0939 18.3811 16.9405 17.66 17.66C16.9389 18.3795 16.0923 18.9496 15.12 19.3704C14.1477 19.7912 13.1077 20.0011 12 20Z" fill="#FE891D"/>
</svg>
