<svg width="23" height="20" viewBox="0 0 23 20" fill="none" xmlns="http://www.w3.org/2000/svg">
<path d="M2.3 19.1998C1.6675 19.1998 1.12623 18.9748 0.6762 18.5248C0.226167 18.0747 0.000766667 17.5331 0 16.8998V3.0998C0 2.4673 0.2254 1.92604 0.6762 1.476C1.127 1.02597 1.66827 0.800571 2.3 0.799805H20.7C21.3325 0.799805 21.8741 1.0252 22.3249 1.476C22.7757 1.9268 23.0008 2.46807 23 3.0998V16.8998C23 17.5323 22.775 18.074 22.3249 18.5248C21.8749 18.9756 21.3333 19.2006 20.7 19.1998H2.3ZM11.5 11.1498L20.7 5.39981V3.0998L11.5 8.84981L2.3 3.0998V5.39981L11.5 11.1498Z" fill="#060011" fill-opacity="0.75"/>
</svg>
