<svg width="26" height="26" viewBox="0 0 26 26" fill="none" xmlns="http://www.w3.org/2000/svg">
<path d="M13 26C11.2108 26 9.52563 25.6581 7.94445 24.9744C6.36327 24.2898 4.98623 23.3605 3.81334 22.1867C2.64045 21.0128 1.71119 19.6358 1.02556 18.0556C0.339934 16.4753 -0.00191783 14.7901 8.09212e-06 13C8.09212e-06 11.205 0.34186 9.5184 1.02556 7.94011C1.71023 6.36085 2.63949 4.98526 3.81334 3.81333C4.98719 2.64141 6.36423 1.71215 7.94445 1.02556C9.52563 0.341852 11.2108 0 13 0C14.795 0 16.4816 0.341852 18.0599 1.02556C19.6391 1.71022 21.0152 2.63948 22.1881 3.81333C23.361 4.98718 24.2898 6.36278 24.9744 7.94011C25.6581 9.51937 26 11.206 26 13C26 14.7892 25.6581 16.4744 24.9744 18.0556C24.2898 19.6367 23.3605 21.0138 22.1867 22.1867C21.0128 23.3596 19.6372 24.2888 18.0599 24.9744C16.4826 25.6601 14.7959 26.0019 13 26ZM13 24.5671C13.8474 23.478 14.5465 22.4086 15.0973 21.359C15.6472 20.3094 16.0945 19.1346 16.4392 17.8346H9.56078C9.94308 19.2077 10.3995 20.4191 10.9301 21.4688C11.4617 22.5184 12.1516 23.5512 13 24.5671ZM11.1612 24.3504C10.4872 23.556 9.87182 22.5738 9.31523 21.4038C8.75864 20.2347 8.34456 19.0445 8.073 17.8331H2.53356C3.36171 19.629 4.53508 21.1024 6.05367 22.2531C7.57323 23.4029 9.27575 24.102 11.1612 24.3504ZM14.8388 24.3504C16.7243 24.102 18.4268 23.4029 19.9463 22.2531C21.4649 21.1024 22.6383 19.629 23.4664 17.8331H17.9284C17.5625 19.0628 17.1017 20.2622 16.5461 21.4312C15.9895 22.6012 15.4204 23.5753 14.8388 24.3504ZM1.94423 16.3901H7.77256C7.66278 15.7969 7.58575 15.2191 7.54145 14.6568C7.49523 14.0954 7.47212 13.5431 7.47212 13C7.47212 12.4569 7.49475 11.9046 7.54001 11.3432C7.58527 10.7818 7.6623 10.204 7.77112 9.60989H1.94567C1.78871 10.1106 1.66593 10.6561 1.57734 11.2464C1.48875 11.8358 1.44445 12.4203 1.44445 13C1.44445 13.5797 1.48827 14.1647 1.5759 14.755C1.66353 15.3453 1.7863 15.8898 1.94423 16.3887M9.217 16.3887H16.783C16.8928 15.7964 16.9698 15.2283 17.0141 14.6842C17.0603 14.1411 17.0834 13.5797 17.0834 13C17.0834 12.4203 17.0608 11.8589 17.0156 11.3158C16.9703 10.7727 16.8933 10.2045 16.7844 9.61133H9.21556C9.10675 10.2036 9.02971 10.7717 8.98445 11.3158C8.93919 11.8589 8.91656 12.4203 8.91656 13C8.91656 13.5797 8.93919 14.1411 8.98445 14.6842C9.02971 15.2273 9.10819 15.7955 9.217 16.3887ZM18.2289 16.3887H24.0558C24.2127 15.8889 24.3355 15.3443 24.4241 14.755C24.5117 14.1647 24.5556 13.5797 24.5556 13C24.5556 12.4203 24.5117 11.8353 24.4241 11.245C24.3365 10.6547 24.2137 10.1101 24.0558 9.61133H18.2274C18.3372 10.2036 18.4143 10.7808 18.4586 11.3432C18.5048 11.9056 18.5279 12.4578 18.5279 13C18.5279 13.5421 18.5053 14.0944 18.46 14.6568C18.4147 15.2191 18.3377 15.7969 18.2289 16.3901M17.9284 8.16689H23.4664C22.62 6.33341 21.4606 4.86007 19.9882 3.74689C18.5159 2.6337 16.7994 1.92544 14.8388 1.62211C15.5129 2.509 16.119 3.52348 16.6573 4.66555C17.1956 5.80667 17.6193 6.97378 17.9284 8.16689ZM9.56078 8.16689H16.4392C16.0579 6.81104 15.5875 5.58518 15.028 4.48933C14.4685 3.39348 13.7925 2.37467 13 1.43289C12.2075 2.3737 11.5315 3.39252 10.972 4.48933C10.4125 5.58615 9.94115 6.812 9.56078 8.16689ZM2.53501 8.16689H8.073C8.38212 6.97474 8.80582 5.80763 9.34412 4.66555C9.88241 3.52348 10.4886 2.509 11.1627 1.62211C9.18474 1.92641 7.46393 2.639 6.00023 3.75989C4.53652 4.8827 3.38097 6.35122 2.53356 8.16544" fill="white"/>
</svg>
