<svg width="18" height="17" viewBox="0 0 18 17" fill="none" xmlns="http://www.w3.org/2000/svg">
<path d="M9.98316 0.439753C10.2234 0.158179 10.5492 0 10.8889 0C11.2285 0 11.5543 0.158179 11.7946 0.439753L17.5592 7.19857C17.7994 7.48023 17.9343 7.86219 17.9343 8.26046C17.9343 8.65872 17.7994 9.04068 17.5592 9.32234L11.7946 16.0812C11.5529 16.3548 11.2294 16.5061 10.8935 16.5027C10.5576 16.4993 10.2363 16.3413 9.99877 16.0629C9.76125 15.7844 9.62653 15.4077 9.62361 15.0139C9.62069 14.6201 9.74981 14.2407 9.98316 13.9574L13.4509 9.76241H1.28104C0.941289 9.76241 0.615451 9.60417 0.375209 9.3225C0.134967 9.04083 0 8.6588 0 8.26046C0 7.86211 0.134967 7.48008 0.375209 7.19841C0.615451 6.91674 0.941289 6.7585 1.28104 6.7585H13.4509L9.98316 2.56352C9.743 2.28186 9.60809 1.8999 9.60809 1.50164C9.60809 1.10337 9.743 0.721412 9.98316 0.439753Z" fill="#38009E"/>
</svg>
