<svg width="24" height="24" viewBox="0 0 24 24" fill="none" xmlns="http://www.w3.org/2000/svg">
<path d="M20 2H4C3.46957 2 2.96086 2.21071 2.58579 2.58579C2.21071 2.96086 2 3.46957 2 4V16C2 16.5304 2.21071 17.0391 2.58579 17.4142C2.96086 17.7893 3.46957 18 4 18H8V21C8 21.55 8.45 22 9 22H9.5C9.75 22 10 21.9 10.2 21.71L13.9 18H20C21.11 18 22 17.11 22 16V4C22 3.46957 21.7893 2.96086 21.4142 2.58579C21.0391 2.21071 20.5304 2 20 2ZM10.47 14L7 10.5L8.4 9.09L10.47 11.17L15.6 6L17 7.41L10.47 14Z" fill="#08CF07"/>
</svg>
