<svg width="41" height="33" viewBox="0 0 41 33" fill="none" xmlns="http://www.w3.org/2000/svg">
<path d="M27.3139 30.9307H18.2732H9.23242" stroke="#38009E" stroke-width="3" stroke-linecap="round" stroke-linejoin="round"/>
<path d="M18.2734 30.9308V23.6982" stroke="#38009E" stroke-width="3" stroke-linecap="round" stroke-linejoin="round"/>
<path d="M18.2734 23.6978H2V2H34.5467V23.6978H18.2734Z" stroke="#38009E" stroke-width="3" stroke-linecap="round" stroke-linejoin="round"/>
<g clip-path="url(#clip0_982_3838)">
<rect x="31.0908" y="16.9814" width="30" height="46" rx="3" fill="white"/>
<path d="M39.4796 15.9814H32.5712C31.757 15.9814 31.0908 16.6407 31.0908 17.4464V30.1427C31.0908 30.9484 31.757 31.6076 32.5712 31.6076H39.4796C40.2938 31.6076 40.96 30.9484 40.96 30.1427V17.4464C40.96 16.6407 40.2938 15.9814 39.4796 15.9814ZM34.0516 16.7139H37.9992V17.2022H34.0516V16.7139ZM36.0254 30.631C35.7637 30.631 35.5126 30.5281 35.3275 30.3449C35.1425 30.1618 35.0385 29.9134 35.0385 29.6543C35.0385 29.3953 35.1425 29.1469 35.3275 28.9638C35.5126 28.7806 35.7637 28.6777 36.0254 28.6777C36.2871 28.6777 36.5382 28.7806 36.7233 28.9638C36.9083 29.1469 37.0123 29.3953 37.0123 29.6543C37.0123 29.9134 36.9083 30.1618 36.7233 30.3449C36.5382 30.5281 36.2871 30.631 36.0254 30.631ZM39.9731 27.7011H32.0777V17.9347H39.9731V27.7011Z" fill="#38009E"/>
</g>
<defs>
<clipPath id="clip0_982_3838">
<rect width="9.86916" height="15.6262" fill="white" transform="translate(31.0908 15.9814)"/>
</clipPath>
</defs>
</svg>
