<svg width="19" height="18" viewBox="0 0 19 18" fill="none" xmlns="http://www.w3.org/2000/svg">
<path d="M16.8398 0C17.3703 0 17.879 0.210714 18.2541 0.585786C18.6291 0.960859 18.8398 1.46957 18.8398 2V16C18.8398 16.5304 18.6291 17.0391 18.2541 17.4142C17.879 17.7893 17.3703 18 16.8398 18H2.83984C2.30941 18 1.8007 17.7893 1.42563 17.4142C1.05056 17.0391 0.839844 16.5304 0.839844 16V2C0.839844 1.46957 1.05056 0.960859 1.42563 0.585786C1.8007 0.210714 2.30941 0 2.83984 0H16.8398ZM16.3398 15.5V10.2C16.3398 9.33539 15.9964 8.5062 15.385 7.89483C14.7736 7.28346 13.9444 6.94 13.0798 6.94C12.2298 6.94 11.2398 7.46 10.7598 8.24V7.13H7.96984V15.5H10.7598V10.57C10.7598 9.8 11.3798 9.17 12.1498 9.17C12.5211 9.17 12.8772 9.3175 13.1398 9.58005C13.4023 9.8426 13.5498 10.1987 13.5498 10.57V15.5H16.3398ZM4.71984 5.56C5.16541 5.56 5.59272 5.383 5.90778 5.06794C6.22284 4.75288 6.39984 4.32556 6.39984 3.88C6.39984 2.95 5.64984 2.19 4.71984 2.19C4.27163 2.19 3.84177 2.36805 3.52483 2.68499C3.2079 3.00193 3.02984 3.43178 3.02984 3.88C3.02984 4.81 3.78984 5.56 4.71984 5.56ZM6.10984 15.5V7.13H3.33984V15.5H6.10984Z" fill="white"/>
</svg>
