<svg width="21" height="22" viewBox="0 0 21 22" fill="none" xmlns="http://www.w3.org/2000/svg">
<path d="M10.5 0C16.023 0 20.5 4.477 20.5 10C20.5 15.523 16.023 20 10.5 20C4.977 20 0.5 15.523 0.5 10C0.5 4.477 4.977 0 10.5 0ZM10.5 4C10.2348 4 9.98043 4.10536 9.79289 4.29289C9.60536 4.48043 9.5 4.73478 9.5 5V10C9.50006 10.2652 9.60545 10.5195 9.793 10.707L12.793 13.707C12.9816 13.8892 13.2342 13.99 13.4964 13.9877C13.7586 13.9854 14.0094 13.8802 14.1948 13.6948C14.3802 13.5094 14.4854 13.2586 14.4877 12.9964C14.49 12.7342 14.3892 12.4816 14.207 12.293L11.5 9.586V5C11.5 4.73478 11.3946 4.48043 11.2071 4.29289C11.0196 4.10536 10.7652 4 10.5 4Z" fill="#060011" fill-opacity="0.75"/>
</svg>
