<svg width="23" height="25" viewBox="0 0 23 25" fill="none" xmlns="http://www.w3.org/2000/svg">
<path d="M11.5002 0C7.4125 0 4.0625 3.34 4.0625 7.4165C4.0625 8.996 4.567 10.464 5.42075 11.6705L10.5925 20.6112C11.3167 21.5575 11.7983 21.3778 12.4005 20.5613L18.105 10.8538C18.22 10.6453 18.3105 10.4233 18.3892 10.1965C18.7511 9.31433 18.9373 8.37 18.9373 7.4165C18.9375 3.34 15.5885 0 11.5002 0ZM11.5002 3.475C13.7017 3.475 15.4522 5.2215 15.4522 7.4165C15.4522 9.6115 13.7017 11.3575 11.5002 11.3575C9.299 11.3575 7.54775 9.612 7.54775 7.41675C7.54775 5.2215 9.299 3.47525 11.5 3.47525" fill="#060011" fill-opacity="0.75"/>
<path d="M16.2282 12.2271L16.2162 12.2586L16.2267 12.2298L16.2282 12.2271ZM14.962 18.3385L14.6162 18.7661C15.0837 18.8226 15.5362 18.8888 15.96 18.9691L14.5902 19.3748L16.4185 19.8611L17.7812 19.4313C18.6182 19.712 19.7772 20.0553 20.1612 20.4455H17.4287L17.7002 21.2396H20.5357C20.5272 21.6871 19.7272 22.0505 18.9632 22.345L17.0255 21.9261L15.1997 22.5803L17.1497 23.0253C16.0112 23.3353 14.0997 23.5238 12.5172 23.6106L12.4507 22.7006H10.5492L10.4825 23.6106C8.89998 23.5238 6.98873 23.3356 5.84998 23.0255L7.80023 22.5803L5.97448 21.9261L4.03648 22.345C3.28348 22.1163 2.47273 21.6871 2.46423 21.2396H5.29998L5.57148 20.4455H2.83898C3.22298 20.0553 4.38198 19.712 5.21898 19.4313L6.58173 19.8611L8.40998 19.3748L7.04023 18.9691C7.48259 18.8874 7.92749 18.8201 8.37423 18.7673L8.03348 18.3391C4.33723 18.7233 1.26523 19.5416 0.459727 20.8338C-0.825023 22.8933 3.91448 24.965 11.3425 24.9973C11.453 25.0028 11.562 24.9988 11.665 24.9973C19.0887 24.9633 23.824 22.8923 22.5402 20.8338C21.7342 19.5411 18.6605 18.7225 14.962 18.3385Z" fill="#060011" fill-opacity="0.75"/>
</svg>
