<svg width="20" height="17" viewBox="0 0 20 17" fill="none" xmlns="http://www.w3.org/2000/svg">
<path d="M11.0613 0.439753C11.3275 0.158179 11.6885 0 12.0649 0C12.4412 0 12.8022 0.158179 13.0684 0.439753L19.4556 7.19857C19.7217 7.48023 19.8712 7.86219 19.8712 8.26045C19.8712 8.65872 19.7217 9.04068 19.4556 9.32234L13.0684 16.0812C12.8007 16.3548 12.4421 16.5061 12.07 16.5027C11.6978 16.4993 11.3418 16.3413 11.0786 16.0629C10.8155 15.7844 10.6662 15.4077 10.663 15.0139C10.6597 14.6201 10.8028 14.2407 11.0613 13.9574L14.9036 9.76241H1.41939C1.04295 9.76241 0.681919 9.60417 0.415731 9.3225C0.149543 9.04083 0 8.6588 0 8.26045C0 7.86211 0.149543 7.48008 0.415731 7.19841C0.681919 6.91674 1.04295 6.7585 1.41939 6.7585H14.9036L11.0613 2.56352C10.7952 2.28186 10.6458 1.8999 10.6458 1.50164C10.6458 1.10337 10.7952 0.721412 11.0613 0.439753Z" fill="white"/>
</svg>
