<svg width="47" height="48" viewBox="0 0 47 48" fill="none" xmlns="http://www.w3.org/2000/svg">
<path d="M4.92288 9.64068V42.4612H41.846V46.5638H4.92288C3.83481 46.5638 2.79131 46.1315 2.02193 45.3621C1.25255 44.5928 0.820313 43.5493 0.820312 42.4612V9.64068H4.92288ZM31.5895 15.7945H42.8716L31.5895 4.51247V15.7945ZM13.128 1.43555H33.6408L45.9485 13.7432V34.2561C45.9485 35.3441 45.5163 36.3876 44.7469 37.157C43.9775 37.9264 42.934 38.3586 41.846 38.3586H13.128C12.0399 38.3586 10.9964 37.9264 10.2271 37.157C9.45767 36.3876 9.02544 35.3441 9.02544 34.2561V5.53811C9.02544 4.45004 9.45767 3.40654 10.2271 2.63716C10.9964 1.86778 12.0399 1.43555 13.128 1.43555ZM13.128 5.53811V34.2561H41.846V19.8971H27.487V5.53811H13.128Z" fill="#38009E" stroke="white"/>
</svg>
