<?xml version="1.0" encoding="UTF-8"?>
<svg id="Calque_1" data-name="Calque 1" xmlns="http://www.w3.org/2000/svg" viewBox="0 0 640.21 288.96">
  <defs>
    <style>
      .cls-1 {
        fill: #ff8000;
      }

      .cls-2 {
        fill: #070012;
      }

      .cls-3 {
        fill: #f3f3ff;
      }
    </style>
  </defs>
  <path class="cls-3" d="M242.02,129.15c-.31-2.08-.71-4.13-1.17-6.16-1.57-6.92-3.95-13.53-7.05-19.73-.83-1.69-1.73-3.35-2.68-4.98-15.41-26.56-44.22-44.39-77.16-44.39-49.15,0-88.85,39.7-88.85,88.85,0,12.92,2.74,25.18,7.68,36.25.72,1.62,1.49,3.21,2.31,4.77,3.52,6.79,7.9,13.06,12.99,18.68,1.4,1.53,2.85,3.02,4.34,4.46,15.96,15.31,37.62,24.69,61.53,24.69,49.15,0,89.1-39.7,89.1-88.85,0-4.62-.35-9.16-1.04-13.59ZM153.96,190.68c-3.73,0-7.36-.43-10.84-1.24-2.61-.61-5.14-1.43-7.57-2.45-17.31-7.24-29.53-24.37-29.53-44.25,0-26.39,21.55-47.94,47.94-47.94s47.94,21.55,47.94,47.94c0,3.6-.4,7.12-1.17,10.5-.59,2.64-1.4,5.19-2.41,7.64-7.18,17.45-24.38,29.8-44.36,29.8Z"/>
  <path class="cls-3" d="M317.34,186.03c-2.04.32-4.08.55-6.11.71-2.04.16-4.15.32-6.35.47l.02,43.48h-39.72s-.06-171.8-.06-171.8h39.72c9.87.14,19.12,1.94,27.74,5.38,8.62,3.44,16.18,8.06,22.69,13.84,6.5,5.79,11.6,12.56,15.29,20.3,3.68,7.74,5.53,15.92,5.53,24.52,0,9.39-1.96,18-5.87,25.82-3.92,7.82-9.4,14.64-16.45,20.42l38.1,61.49-46.77.02-27.75-44.65ZM304.86,147.49c4.23-.16,8.26-.91,12.1-2.25,3.84-1.34,7.2-3.11,10.11-5.32,2.9-2.2,5.17-4.76,6.81-7.68,1.64-2.91,2.47-6.02,2.46-9.33,0-3.31-.82-6.38-2.47-9.21s-3.92-5.35-6.82-7.56c-2.9-2.2-6.27-3.97-10.11-5.31-3.84-1.34-7.88-2.08-12.11-2.24l.02,48.89Z"/>
  <path class="cls-3" d="M428.76,230.65h-39.72s-.06-172.75-.06-172.75h39.72s.06,172.75.06,172.75Z"/>
  <path class="cls-3" d="M550.98,230.61l-6.82-20.92-54.3.02-7.04,20.92h-42.07s58.7-172.53,58.7-172.53h37.61s55.76,172.49,55.76,172.49h-41.84ZM503.48,169.98h27.97s-13.65-41.84-13.65-41.84l-14.32,41.84Z"/>
  <path class="cls-1" d="M72.79,178.99c-10.89,10.58-14.94,18.78-12.02,24.44,1.97,3.83,6.73,5.75,14.24,5.75,3.76,0,8.19-.49,13.31-1.44,1.33-.25,2.7-.53,4.11-.84,2.17-.48,4.44-1.03,6.82-1.66,12.96-3.44,27.99-8.87,43.87-15.8,8.85-3.86,17.96-8.19,27.11-12.9,9.84-5.07,19.27-10.34,28.09-15.66,14.11-8.54,26.61-17.22,36.5-25.41,2.64-2.19,5.04-4.3,7.2-6.32.83-.77,1.63-1.53,2.39-2.28,8.14-8.06,12.23-14.72,12.23-19.87,0-1.41-.3-2.71-.91-3.9-2.76-5.36-11.01-6.97-24.61-4.82l2.68,4.98c3.08-.44,5.79-.65,8.1-.65,5.04,0,8.21,1,9.17,2.89,1.19,2.3-.73,7.58-8.57,15.8-.52.55-1.07,1.11-1.65,1.69-2.57,2.56-5.67,5.37-9.37,8.44-8.49,7.04-18.96,14.45-30.75,21.81-10.13,6.33-21.23,12.63-32.9,18.64-10.97,5.64-21.85,10.72-32.28,15.11-13.6,5.7-26.42,10.21-37.64,13.18-3.61.96-6.87,1.7-9.82,2.27-1.11.21-2.17.4-3.19.56-12.35,1.98-18.24.44-19.48-1.97-1.24-2.41.93-8.09,9.77-17.01l-.09-.26-2.31-4.77Z"/>
  <g>
    <g>
      <ellipse class="cls-1" cx="229.53" cy="62.04" rx="6.02" ry="5.91" transform="translate(-2.44 9.86) rotate(-2.45)"/>
      <ellipse class="cls-2" cx="229.53" cy="62.04" rx="3.01" ry="2.96" transform="translate(-2.44 9.86) rotate(-2.45)"/>
    </g>
    <ellipse class="cls-3" cx="206.66" cy="53.33" rx="1.77" ry="1.74" transform="translate(-2.09 8.87) rotate(-2.45)"/>
    <ellipse class="cls-3" cx="96.75" cy="58.02" rx="1.77" ry="1.74" transform="translate(-2.39 4.18) rotate(-2.45)"/>
    <ellipse class="cls-3" cx="60.23" cy="96.25" rx="1.77" ry="1.74" transform="translate(-4.05 2.66) rotate(-2.45)"/>
    <ellipse class="cls-3" cx="49.16" cy="149.85" rx="1.77" ry="1.74" transform="translate(-6.35 2.24) rotate(-2.45)"/>
    <ellipse class="cls-3" cx="53.07" cy="175.89" rx="1.77" ry="1.74" transform="translate(-7.46 2.43) rotate(-2.45)"/>
    <ellipse class="cls-3" cx="104.33" cy="237.63" rx="1.77" ry="1.74" transform="translate(-10.05 4.67) rotate(-2.45)"/>
    <ellipse class="cls-3" cx="214.05" cy="231.2" rx="1.77" ry="1.74" transform="translate(-9.68 9.35) rotate(-2.45)"/>
    <ellipse class="cls-3" cx="129.24" cy="244.3" rx="1.77" ry="1.74" transform="translate(-10.31 5.74) rotate(-2.45)"/>
    <ellipse class="cls-3" cx="189.83" cy="241.71" rx="1.77" ry="1.74" transform="translate(-10.15 8.33) rotate(-2.45)"/>
    <ellipse class="cls-3" cx="52.09" cy="120.21" rx="2.42" ry="2.38" transform="translate(-5.08 2.33) rotate(-2.45)"/>
    <ellipse class="cls-3" cx="181.39" cy="42.51" rx="1.77" ry="1.74" transform="translate(-1.65 7.78) rotate(-2.45)"/>
    <ellipse class="cls-3" cx="120.76" cy="45.1" rx="1.77" ry="1.74" transform="translate(-1.82 5.2) rotate(-2.45)"/>
    <ellipse class="cls-3" cx="151" cy="38.99" rx="3.47" ry="3.4" transform="translate(-1.53 6.48) rotate(-2.45)"/>
    <ellipse class="cls-3" cx="75.76" cy="74.38" rx="3.47" ry="3.4" transform="translate(-3.11 3.3) rotate(-2.45)"/>
    <path class="cls-3" d="M80.69,216.76l1.62,4.28,4.63-.2c.39-.02.58.48.27.72l-3.63,2.83,1.62,4.27c.14.37-.27.7-.6.48l-3.88-2.52-3.65,2.84c-.31.24-.74-.05-.64-.43l1.25-4.39-3.85-2.51c-.33-.21-.19-.73.2-.74l4.63-.2,1.25-4.4c.11-.37.63-.4.77-.03Z"/>
    <ellipse class="cls-3" cx="159.73" cy="247.48" rx="6.02" ry="5.91" transform="translate(-10.42 7.05) rotate(-2.45)"/>
    <ellipse class="cls-2" cx="159.73" cy="247.48" rx="3.01" ry="2.96" transform="translate(-10.42 7.05) rotate(-2.45)"/>
  </g>
</svg>