<svg width="41" height="35" viewBox="0 0 41 35" fill="none" xmlns="http://www.w3.org/2000/svg">
<path d="M20.5 0C19.7316 -1.14081e-08 18.9707 0.150793 18.2608 0.443769C17.5509 0.736745 16.9059 1.16617 16.3625 1.70752C15.8192 2.24887 15.3882 2.89154 15.0941 3.59885C14.8001 4.30615 14.6487 5.06424 14.6487 5.82983C14.6487 6.59541 14.8001 7.3535 15.0941 8.0608C15.3882 8.76811 15.8192 9.41079 16.3625 9.95214C16.9059 10.4935 17.5509 10.9229 18.2608 11.2159C18.9707 11.5089 19.7316 11.6597 20.5 11.6597C22.0519 11.6597 23.5402 11.0454 24.6375 9.95214C25.7348 8.85883 26.3513 7.37599 26.3513 5.82983C26.3513 4.28366 25.7348 2.80082 24.6375 1.70752C23.5402 0.614212 22.0519 0 20.5 0ZM33.6786 2.91199C32.5135 2.91199 31.3962 3.37312 30.5724 4.19391C29.7485 5.01471 29.2857 6.12796 29.2857 7.28874C29.2857 8.44953 29.7485 9.56277 30.5724 10.3836C31.3962 11.2044 32.5135 11.6655 33.6786 11.6655C34.8436 11.6655 35.961 11.2044 36.7848 10.3836C37.6086 9.56277 38.0714 8.44953 38.0714 7.28874C38.0714 6.12796 37.6086 5.01471 36.7848 4.19391C35.961 3.37312 34.8436 2.91199 33.6786 2.91199ZM7.32143 2.91199C6.15637 2.91199 5.03903 3.37312 4.21521 4.19391C3.39139 5.01471 2.92857 6.12796 2.92857 7.28874C2.92857 8.44953 3.39139 9.56277 4.21521 10.3836C5.03903 11.2044 6.15637 11.6655 7.32143 11.6655C8.48649 11.6655 9.60383 11.2044 10.4276 10.3836C11.2515 9.56277 11.7143 8.44953 11.7143 7.28874C11.7143 6.12796 11.2515 5.01471 10.4276 4.19391C9.60383 3.37312 8.48649 2.91199 7.32143 2.91199ZM11.7143 17.4807C11.7197 16.7104 12.0306 15.9735 12.5793 15.4307C13.1279 14.8879 13.8697 14.5833 14.6429 14.5833H26.3571C27.1338 14.5833 27.8787 14.8907 28.428 15.4379C28.9772 15.9851 29.2857 16.7273 29.2857 17.5011V26.2546C29.2865 27.173 29.1422 28.0858 28.8581 28.9595C28.2097 30.9398 26.8739 32.625 25.0906 33.7123C23.3073 34.7997 21.1933 35.218 19.1283 34.8922C17.0633 34.5664 15.1825 33.5178 13.8237 31.9347C12.4648 30.3516 11.7169 28.3377 11.7143 26.2546V17.4807ZM8.78572 17.5011C8.78572 16.4361 9.06979 15.4412 9.57057 14.5833H2.92857C2.15187 14.5833 1.40697 14.8907 0.857759 15.4379C0.308545 15.9851 4.05353e-07 16.7273 4.05353e-07 17.5011V24.7957C-0.000398426 25.99 0.293519 27.1661 0.855942 28.2208C1.41836 29.2754 2.23209 30.1764 3.22565 30.8445C4.21922 31.5126 5.36223 31.9274 6.55431 32.0526C7.74639 32.1777 8.95108 32.0093 10.0626 31.5622C9.22147 29.9175 8.78387 28.0976 8.78572 26.2517V17.5011ZM32.2143 17.5011V26.2546C32.2143 28.1658 31.7545 29.969 30.9374 31.5622C32.0489 32.0093 33.2536 32.1777 34.4457 32.0526C35.6378 31.9274 36.7808 31.5126 37.7743 30.8445C38.7679 30.1764 39.5816 29.2754 40.1441 28.2208C40.7065 27.1661 41.0004 25.99 41 24.7957V17.5011C41 16.7273 40.6915 15.9851 40.1422 15.4379C39.593 14.8907 38.8481 14.5833 38.0714 14.5833H31.4294C31.9273 15.4412 32.2143 16.4361 32.2143 17.5011Z" fill="#060011" fill-opacity="0.8"/>
</svg>
