<svg width="50" height="49" viewBox="0 0 50 49" fill="none" xmlns="http://www.w3.org/2000/svg">
<path fill-rule="evenodd" clip-rule="evenodd" d="M23.2386 12.2537C22.9402 12.5542 23.1301 12.9434 23.6048 12.998L23.9168 13.0389L21.8958 15.0736L19.8681 17.1151L18.4982 16.0159C17.6911 15.3672 17.0672 14.9166 16.9791 14.9166C16.8027 14.9166 13.6221 18.0779 13.5678 18.3168C13.5 18.5558 13.7035 18.8084 13.968 18.8084C14.1646 18.8084 14.341 18.6514 15.5752 17.4087C16.3416 16.6372 16.9926 16.009 17.0197 16.009C17.0537 16.009 17.3588 16.2344 17.7047 16.5075C19.5493 17.9959 19.7189 18.1257 19.902 18.1257C20.0512 18.1257 20.4852 17.7228 22.2891 15.9066C23.5031 14.6844 24.5135 13.6876 24.5407 13.6876C24.5678 13.6876 24.5949 13.831 24.6085 14.0085C24.6288 14.2816 24.656 14.3499 24.8119 14.425C25.0493 14.5411 25.3206 14.4318 25.4155 14.186C25.4562 14.0768 25.4766 13.6466 25.463 13.1892C25.4359 12.1104 25.4426 12.1172 24.2491 12.1172C23.4624 12.1172 23.3607 12.1308 23.2386 12.2537Z" fill="#060011" fill-opacity="0.8"/>
<path fill-rule="evenodd" clip-rule="evenodd" d="M11.913 14.5059C11.7773 14.6425 11.7773 14.7313 11.7773 20.9241C11.7773 27.1169 11.7773 27.2056 11.913 27.3422C12.0486 27.4788 12.1368 27.4788 19.1355 27.4788C26.1342 27.4788 26.2224 27.4788 26.358 27.3422C26.6768 27.0213 26.4259 26.5911 25.9172 26.5911H25.6121V21.6888C25.6121 17.9676 25.5917 16.7659 25.5307 16.7045C25.4018 16.5748 24.4253 16.5952 24.2964 16.7318C24.2015 16.8274 24.1879 17.3736 24.1879 21.7161V26.5911H23.3063V23.5255C23.3063 20.8285 23.2927 20.4461 23.1978 20.3505C23.0486 20.2003 22.1398 20.2003 21.9906 20.3505C21.8957 20.4461 21.8821 20.8285 21.8821 23.5255V26.5911H21.0005V24.7886C21.0005 23.2387 20.9869 22.9656 20.892 22.8768C20.7428 22.7266 19.834 22.7266 19.6848 22.8768C19.5899 22.9656 19.5763 23.2387 19.5763 24.7886V26.5911H18.6947V23.4981C18.6947 21.1835 18.6744 20.3847 18.6133 20.3232C18.5048 20.214 17.4604 20.214 17.3519 20.3232C17.2909 20.3847 17.2705 21.1835 17.2705 23.4981V26.5911H16.3889V24.7886C16.3889 23.2387 16.3754 22.9656 16.2804 22.8768C16.1312 22.7266 15.2225 22.7266 15.0733 22.8768C14.9783 22.9656 14.9648 23.2387 14.9648 24.7886V26.5911H14.0831V25.9698C14.0831 25.0958 14.0831 25.089 13.3032 25.089H12.659V14.663L12.503 14.5196C12.3063 14.3352 12.0893 14.3284 11.913 14.5059Z" fill="#060011" fill-opacity="0.8"/>
<path d="M44.7556 48.8778L30.3278 34.45C28.8556 35.6278 27.1625 36.5602 25.2486 37.2472C23.3347 37.9343 21.2981 38.2778 19.1389 38.2778C13.7898 38.2778 9.26322 36.4247 5.55911 32.7187C1.855 29.0126 0.00196452 24.486 1.55791e-06 19.1389C-0.00196141 13.7918 1.85108 9.26519 5.55911 5.55911C9.26715 1.85304 13.7937 0 19.1389 0C24.484 0 29.0116 1.85304 32.7216 5.55911C36.4316 9.26519 38.2837 13.7918 38.2778 19.1389C38.2778 21.2981 37.9343 23.3347 37.2472 25.2486C36.5602 27.1625 35.6278 28.8556 34.45 30.3278L49.1222 45L44.7556 48.8778ZM19.1389 32.3889C22.8194 32.3889 25.9484 31.1012 28.5258 28.5258C31.1031 25.9504 32.3909 22.8214 32.3889 19.1389C32.3869 15.4564 31.0992 12.3284 28.5258 9.75494C25.9523 7.1815 22.8234 5.89281 19.1389 5.88889C15.4544 5.88496 12.3264 7.17365 9.75495 9.75494C7.18347 12.3362 5.89478 15.4642 5.88889 19.1389C5.883 22.8136 7.17169 25.9425 9.75495 28.5258C12.3382 31.109 15.4662 32.3967 19.1389 32.3889Z" fill="#060011" fill-opacity="0.8"/>
<path d="M34.0964 30.6813L48.3935 44.9784L44.7759 48.191L30.6813 34.0964L30.3649 33.78L30.0154 34.0596C28.5895 35.2003 26.9458 36.1068 25.0797 36.7766C23.2233 37.443 21.2442 37.7778 19.1389 37.7778C13.9194 37.7778 9.52092 35.9753 5.91276 32.3652C2.30444 28.755 0.501917 24.3564 0.500002 19.1387C0.498086 13.9213 2.30048 9.52293 5.91257 5.91276C9.52481 2.30243 13.9234 0.5 19.1389 0.5C24.3544 0.5 28.754 2.30244 32.3682 5.91285C35.9822 9.52295 37.7835 13.9212 37.7778 19.1383V19.1389C37.7778 21.2442 37.443 23.2233 36.7766 25.0797C36.1068 26.9457 35.2003 28.5895 34.0596 30.0154L33.78 30.3649L34.0964 30.6813ZM19.14 32.8889C22.9511 32.8886 26.2073 31.5494 28.8792 28.8795L19.1389 32.3889V32.8889C19.1393 32.8889 19.1396 32.8889 19.14 32.8889Z" stroke="#F5F5F5"/>
</svg>
