<svg width="44" height="45" viewBox="0 0 44 45" fill="none" xmlns="http://www.w3.org/2000/svg">
<path d="M19.4419 4.18605C17.5422 4.18605 15.7203 4.95785 14.377 6.33166C13.0337 7.70547 12.2791 9.56876 12.2791 11.5116C12.2791 13.4545 13.0337 15.3178 14.377 16.6916C15.7203 18.0654 17.5422 18.8372 19.4419 18.8372C21.3416 18.8372 23.1634 18.0654 24.5067 16.6916C25.85 15.3178 26.6047 13.4545 26.6047 11.5116C26.6047 9.56876 25.85 7.70547 24.5067 6.33166C23.1634 4.95785 21.3416 4.18605 19.4419 4.18605ZM8.18605 11.5116C8.18605 8.45855 9.37192 5.53053 11.4828 3.37168C13.5937 1.21283 16.4566 0 19.4419 0C22.4271 0 25.29 1.21283 27.4009 3.37168C29.5118 5.53053 30.6977 8.45855 30.6977 11.5116C30.6977 14.5647 29.5118 17.4927 27.4009 19.6516C25.29 21.8104 22.4271 23.0233 19.4419 23.0233C16.4566 23.0233 13.5937 21.8104 11.4828 19.6516C9.37192 17.4927 8.18605 14.5647 8.18605 11.5116ZM32.7442 26.1628C30.8445 26.1628 29.0226 26.9346 27.6793 28.3084C26.336 29.6822 25.5814 31.5455 25.5814 33.4884C25.5814 35.4312 26.336 37.2945 27.6793 38.6683C29.0226 40.0422 30.8445 40.814 32.7442 40.814C34.6439 40.814 36.4658 40.0422 37.809 38.6683C39.1523 37.2945 39.907 35.4312 39.907 33.4884C39.907 31.5455 39.1523 29.6822 37.809 28.3084C36.4658 26.9346 34.6439 26.1628 32.7442 26.1628ZM21.4884 33.4884C21.4884 31.9766 21.7795 30.4797 22.3452 29.0831C22.9108 27.6864 23.7399 26.4174 24.7851 25.3484C25.8303 24.2795 27.0712 23.4315 28.4368 22.853C29.8024 22.2745 31.2661 21.9767 32.7442 21.9767C34.2223 21.9767 35.686 22.2745 37.0516 22.853C38.4172 23.4315 39.6581 24.2795 40.7033 25.3484C41.7484 26.4174 42.5775 27.6864 43.1432 29.0831C43.7089 30.4797 44 31.9766 44 33.4884C44 36.5414 42.8141 39.4695 40.7033 41.6283C38.5924 43.7872 35.7294 45 32.7442 45C29.759 45 26.896 43.7872 24.7851 41.6283C22.6742 39.4695 21.4884 36.5414 21.4884 33.4884ZM12.2791 29.3023C10.108 29.3023 8.02584 30.1844 6.49066 31.7545C4.95548 33.3245 4.09302 35.454 4.09302 37.6744H18.5209V41.8605H0V37.6744C0 34.3438 1.29368 31.1496 3.59646 28.7945C5.89923 26.4394 9.02246 25.1163 12.2791 25.1163H18.4186V29.3023H12.2791ZM34.7907 28.7833V32.6219L37.6845 35.5814L34.7907 38.5409L30.6977 34.3549V28.7833H34.7907Z" fill="#060011" fill-opacity="0.8"/>
</svg>
