<svg width="50" height="51" viewBox="0 0 50 51" fill="none" xmlns="http://www.w3.org/2000/svg">
<g clip-path="url(#clip0_1219_1067)">
<path fill-rule="evenodd" clip-rule="evenodd" d="M14.8804 0.469642C11.299 1.42999 7.57887 3.91559 4.99697 7.07908C3.52556 8.91503 1.24905 13.519 0.527228 16.1176C-0.222356 18.9139 -0.166831 26.7379 0.666039 29.7319C1.99863 34.6466 3.55332 37.5842 6.41285 40.5499C8.74489 42.9791 11.5211 44.5043 14.4084 44.9562C15.5189 45.1257 19.6277 45.2104 24.5417 45.154C31.6211 45.0692 32.9259 44.9845 33.8698 44.5608C34.4528 44.3066 35.0358 44.0806 35.1746 44.0806C35.3135 44.0806 35.4245 44.9562 35.4245 46.0296C35.4245 48.148 35.952 49.2778 37.4512 50.4076C38.173 50.9443 38.6172 51.0008 42.7815 51.0008C47.751 51.0008 48.0564 50.916 49.4167 49.0518C49.9997 48.2892 49.9997 47.9785 49.9997 33.5451C49.9997 16.5413 50.0275 16.7955 47.4456 11.3159C46.0575 8.40662 45.6688 7.84171 43.3645 5.52558C40.6161 2.75752 38.173 1.26052 35.0081 0.441397C32.7038 -0.151758 17.1291 -0.151758 14.8804 0.469642ZM20.9881 3.09647C22.8204 3.40717 25.208 4.31102 26.5406 5.15839L27.5122 5.80803L21.932 5.94926L16.3795 6.09049L14.2974 7.13557C10.6882 8.94328 8.05083 12.1915 6.63495 16.5131C5.99641 18.4902 5.88536 19.3094 5.88536 22.3316C5.8576 26.286 6.16299 27.9807 7.52334 30.9465C8.60607 33.3756 10.4384 35.494 12.4373 36.5956C13.8809 37.4429 13.9642 37.4429 19.2946 37.5842L24.6805 37.7254L23.3756 38.94C22.6538 39.6178 21.2379 40.5782 20.2107 41.0584C18.5728 41.8492 18.073 41.9622 15.9909 41.934C13.9642 41.934 13.3812 41.821 11.9653 41.1149C8.24516 39.3071 4.99697 34.6749 3.58109 29.167C2.63717 25.4669 2.58164 20.185 3.47004 16.8803C4.9692 11.1182 8.4395 6.59891 13.0758 4.36752C15.7965 3.03998 18.2674 2.64454 20.9881 3.09647ZM35.1191 3.66138C36.6461 4.14155 39.3112 5.52558 39.3112 5.80803C39.3112 5.89277 39.0614 6.20347 38.756 6.51417C38.4506 6.82487 38.2007 7.2768 38.2007 7.50276C38.2007 8.49135 39.2557 9.05626 41.0603 9.05626H42.7815L43.6977 10.4685C44.4473 11.6548 44.5583 12.0503 44.4195 12.9541C44.2529 14.084 44.7527 14.9878 45.5578 14.9878C45.9464 14.9878 46.8348 17.4452 46.6127 17.8688C46.5572 18.0101 45.4467 18.0948 44.1697 18.0948C42.143 18.0948 41.7821 18.1795 41.5322 18.6315C40.6716 20.298 41.5045 20.9194 44.6138 20.9194H47.0847V24.0264H46.1408C45.6133 24.0264 44.9748 24.2241 44.7527 24.4783C43.6977 25.5234 44.6416 27.1334 46.3074 27.1334C47.0569 27.1334 47.0847 27.1898 47.0847 28.5456V29.9579H44.7804C42.2541 29.9579 41.2546 30.3816 41.2546 31.4267C41.2546 32.726 41.9764 33.0649 44.6416 33.0649H47.0847V36.1719H46.0297C44.7804 36.1719 44.3085 36.5673 44.3085 37.5842C44.3085 38.601 44.7804 38.9964 46.0297 38.9964H47.0847V42.1034H38.2285L38.1452 29.8732C38.0342 16.3718 38.0342 16.3436 36.0908 12.1915C34.786 9.31047 33.0369 6.93785 30.6494 4.67822L28.6227 2.75752L31.0381 2.927C32.3429 3.03998 34.1752 3.35068 35.1191 3.66138ZM22.515 9.87538C23.4312 10.2991 24.4029 10.9205 24.6805 11.2312C25.0136 11.6266 23.9031 11.862 21.349 11.9373C17.9065 12.022 17.4067 12.1068 16.2685 12.7282C11.4934 15.4397 10.022 25.6081 13.9364 29.0823C14.5842 29.666 16.0094 29.9579 18.2118 29.9579C20.0164 29.9579 21.5711 30.0426 21.6544 30.1839C21.9042 30.6075 20.2385 32.6412 18.9614 33.4603C14.8526 36.0589 10.8826 33.3191 9.18908 26.7097C8.35621 23.405 8.80041 18.2643 10.1885 15.468C12.937 9.93187 17.9342 7.64399 22.515 9.87538ZM31.6211 10.1296C32.8704 12.0785 34.0642 14.7336 34.6472 16.9367C35.2024 18.8857 35.2579 19.9873 35.369 29.4777C35.4523 37.8666 35.3967 39.9568 35.0914 40.324C34.897 40.5782 34.1197 41.0866 33.3423 41.4256C32.093 42.0187 31.5378 42.1034 28.0952 42.1034H24.2363L25.6522 40.5782C33.5367 32.1046 34.7027 18.0948 28.1508 10.638L26.7627 9.05626H30.8992L31.6211 10.1296ZM20.5994 15.5245C21.6544 16.1741 22.4595 17.4734 23.0425 19.4223L23.4589 20.9194H21.7654C20.8215 20.9194 19.711 21.1171 19.1835 21.3713C18.2396 21.8232 17.379 23.2072 17.379 24.2806C17.379 24.6195 17.1014 25.4386 16.796 26.06L16.213 27.2463L15.6855 26.5967C13.6311 23.9981 14.7138 17.2474 17.49 15.5245C18.5728 14.8466 19.5167 14.8466 20.5994 15.5245ZM28.123 16.2589C29.3168 19.733 29.6499 24.5065 28.9281 27.9807C28.706 28.9976 28.1508 30.89 27.6511 32.161L26.7904 34.4772H22.3484L23.1813 33.4038C26.6238 29.0258 27.4567 20.2697 24.8193 15.8917L24.264 14.9596L25.9853 15.0443L27.7343 15.129L28.123 16.2589ZM23.4034 24.5065C23.3201 24.789 23.1813 25.4951 23.0703 26.06L22.9037 27.1334H21.4045C20.294 27.1334 19.8868 26.512 20.183 25.2692L20.4884 24.0264H22.0153C23.3201 24.0264 23.5145 24.0828 23.4034 24.5065ZM47.0847 46.2838C47.0847 46.8769 46.9459 47.4983 46.7515 47.696C46.5295 47.922 45.2246 48.035 42.7538 48.035C39.2557 48.035 39.0336 48.0067 38.6449 47.4136C38.3951 47.0746 38.2007 46.425 38.2007 46.0013V45.2104H47.0847V46.2838Z" fill="#060011" fill-opacity="0.8"/>
</g>
<defs>
<clipPath id="clip0_1219_1067">
<rect width="50" height="51" fill="white"/>
</clipPath>
</defs>
</svg>
