<svg width="159" height="1173" viewBox="0 0 159 1173" fill="none" xmlns="http://www.w3.org/2000/svg">
<g clip-path="url(#clip0_1219_2010)">
<path d="M15.6366 124.924L15.1366 124.926L14.4904 2.28999L14.4828 0.856975L14.7088 1.13835C14.8326 0.798993 15.0122 0.506143 15.2368 0.265168C15.689 -0.220015 16.2973 -0.464844 16.9069 -0.464844C17.5164 -0.464844 18.1253 -0.220148 18.5802 0.263549C19.0374 0.749706 19.3134 1.44844 19.3171 2.31638M15.6366 124.924L18.8171 2.31891M15.6366 124.924L15.1366 124.926C15.151 127.612 15.1446 130.353 15.1382 133.132C15.1106 145.02 15.0815 157.603 16.6663 169.48C18.6225 184.139 23.0462 197.811 33.0346 207.854L33.3891 207.502L33.0346 207.854C40.9966 215.859 50.5478 220.419 59.9961 224.931C60.5506 225.196 61.1048 225.46 61.6583 225.726C71.664 230.519 81.4573 235.486 89.2565 244.65L89.2566 244.65C99.0275 256.122 102.096 271.319 101.045 286.803C99.9937 302.287 94.8258 318.004 88.195 330.439C81.2378 343.483 71.0062 356.3 59.3111 364.071C60.2798 349.89 59.0041 335.976 52.2032 323.291L51.7626 323.527L52.2032 323.291C47.2308 314.02 39.0583 306.213 30.4018 303.357C26.0644 301.925 21.5914 301.733 17.3482 303.246C13.104 304.759 9.13901 307.959 5.78731 313.224C-0.22973 322.667 -1.63553 334.218 0.472832 344.788C2.58044 355.355 8.21129 364.998 16.341 370.608L16.3412 370.608C26.4828 377.597 37.4154 378.535 47.818 375.492C49.7663 374.922 51.6956 374.213 53.5978 373.378C52.7482 380.062 51.5406 386.726 50.3451 393.323C49.7152 396.799 49.0887 400.256 48.5196 403.688L49.0129 403.77L48.5196 403.689C46.4638 416.108 45.0215 430.423 46.2865 443.897C47.5511 457.367 51.5271 470.055 60.3625 479.155C68.7328 487.775 79.4809 490.113 89.9874 492.398C91.1879 492.659 92.3852 492.919 93.5755 493.188C105.22 495.82 116.269 499.272 123.633 511.969L124.065 511.718L123.633 511.969C131.602 525.705 132.687 541.456 129.627 556.503C126.567 571.551 119.365 585.861 110.812 596.668C101.507 608.418 90.6958 617.812 79.7427 627.078C78.9438 627.754 78.1441 628.429 77.3442 629.104C67.1866 637.68 56.9926 646.286 47.9143 656.665C29.5702 677.635 19.0034 705.962 18.4186 737.007C17.8463 767.068 27.3734 796.519 43.0284 819.609C58.0034 841.696 78.6136 858.002 101.403 863.42C102.065 870.951 102.68 878.462 102.62 885.997C102.468 904.255 97.1935 919.174 87.4343 932.517C83.8976 937.348 80.1657 941.921 76.4537 946.47C76.0298 946.989 75.6061 947.508 75.183 948.027C71.0588 953.089 66.9911 958.151 63.3013 963.513C55.916 974.245 50.0365 986.19 48.1869 1001.81C44.4435 1033.34 55.5355 1063.55 70.7129 1087.87L71.1371 1087.6L70.7131 1087.87C79.0932 1101.27 88.6644 1113.41 98.2169 1125.45C98.7323 1126.1 99.3782 1126.39 100.043 1126.33C100.682 1126.28 101.239 1125.9 101.634 1125.4C102.418 1124.43 102.724 1122.78 101.687 1121.48C81.9597 1096.6 60.9706 1070.09 54.3065 1035.11C50.9608 1017.52 51.4109 998.347 58.1546 982.102C63.2326 969.876 71.3241 960.306 79.3183 950.85C79.985 950.061 80.651 949.273 81.3146 948.485C89.3584 938.927 97.5977 928.818 102.434 916.029C108.051 901.23 107.889 884.869 106.735 869.02C106.624 867.491 106.501 865.953 106.372 864.407C127.461 867.575 152.104 856.522 158.461 828.762L157.974 828.651L158.461 828.762C160.999 817.661 158.834 805.172 153.542 795.793C148.253 786.42 139.758 780.035 129.61 781.439L129.679 781.934L129.61 781.439C119.697 782.814 112.493 790.661 107.682 800.694C102.864 810.74 100.385 823.088 99.9716 833.711C99.6576 841.735 100.216 849.72 100.898 857.676C99.8439 857.383 98.7912 857.06 97.7411 856.708C83.7755 852.025 70.329 842.289 60.0122 831.865C40.1127 811.754 26.0605 782.63 23.6239 750.563L23.1253 750.601L23.6239 750.563C20.9722 715.8 31.4544 683.09 52.1616 659.804L51.7879 659.472L52.1617 659.804C59.7199 651.298 69.2319 643.041 79.1401 634.439L80.136 633.574C90.3907 624.67 101.004 615.384 110.192 605.103C128.584 584.524 141.313 559.905 134.147 526.239C131.787 515.123 126.716 504.901 119.047 498.199L119.047 498.199C110.911 491.097 101.027 489 91.5134 486.982C89.8328 486.625 88.1639 486.271 86.5182 485.892C73.9258 482.989 62.0919 477.702 55.8474 462.867L55.8473 462.867C50.3444 449.82 49.8305 434.156 51.1833 419.704C51.9097 411.958 53.3156 403.909 54.7762 395.717L54.9902 394.518C56.382 386.72 57.795 378.804 58.6822 370.939C58.6871 370.895 58.692 370.851 58.6969 370.808C65.0196 367.206 70.9347 362.276 76.1072 356.569C92.1915 338.824 105.734 310.896 106.128 282.435C106.326 268.189 102.998 256.662 97.1825 247.362C91.3688 238.065 83.0869 231.021 73.4178 225.712C70.2181 223.951 66.9825 222.302 63.7718 220.665C45.2126 211.202 27.4832 202.162 22.3117 174.593C19.7566 160.95 19.8432 146.559 19.9284 132.396C19.9498 128.849 19.971 125.316 19.9507 121.813L19.6339 62.0647L15.6366 124.924ZM19.3171 2.31638C19.3171 2.31653 19.3171 2.31668 19.3171 2.31683L18.8171 2.31891M19.3171 2.31638C19.3171 2.31627 19.3171 2.31616 19.3171 2.31604L18.8171 2.31891M19.3171 2.31638C19.4304 22.1012 19.5312 41.9015 19.6319 61.6862L19.6339 62.0646L19.1339 62.0672L19.1319 61.6844C19.0312 41.901 18.9304 22.1022 18.8171 2.31891M53.8028 343.61C55.0069 351.381 54.97 359.216 54.2837 367.043C43.4849 372.639 31.7512 373.636 20.3064 366.661L20.0462 367.088L20.3063 366.661C8.94223 359.742 2.23451 345.108 4.91538 329.338L4.42245 329.254L4.91539 329.338C6.20468 321.748 9.67225 315.438 14.3177 311.654C18.9477 307.883 24.7569 306.608 30.8451 309.066C43.1598 314.037 51.4597 328.536 53.8028 343.61ZM138.506 851.308C128.522 859.129 117.214 860.89 105.897 858.829C104.806 846.032 103.841 832.863 106.435 820.216L105.945 820.115L106.435 820.216C107.771 813.693 109.975 806.803 113.2 800.987C116.427 795.167 120.651 790.469 126.005 788.25L125.814 787.788L126.006 788.25C132.279 785.646 138.369 787.281 143.351 791.47C148.345 795.669 152.196 802.42 153.887 809.938C157.614 826.504 149.609 842.617 138.507 851.307L138.815 851.701L138.506 851.308Z" fill="#38009E"/>
<path d="M15.6366 124.924L15.1366 124.926L14.4904 2.28999L14.4828 0.856975L14.7088 1.13835C14.8326 0.798993 15.0122 0.506143 15.2368 0.265168C15.689 -0.220015 16.2973 -0.464844 16.9069 -0.464844C17.5164 -0.464844 18.1253 -0.220148 18.5802 0.263549C19.0374 0.749706 19.3134 1.44844 19.3171 2.31638M15.6366 124.924L18.8171 2.31891M15.6366 124.924L15.1366 124.926C15.151 127.612 15.1446 130.353 15.1382 133.132C15.1106 145.02 15.0815 157.603 16.6663 169.48C18.6225 184.139 23.0462 197.811 33.0346 207.854L33.3891 207.502L33.0346 207.854C40.9966 215.859 50.5478 220.419 59.9961 224.931C60.5506 225.196 61.1048 225.46 61.6583 225.726C71.664 230.519 81.4573 235.486 89.2565 244.65L89.2566 244.65C99.0275 256.122 102.096 271.319 101.045 286.803C99.9937 302.287 94.8258 318.004 88.195 330.439C81.2378 343.483 71.0062 356.3 59.3111 364.071C60.2798 349.89 59.0041 335.976 52.2032 323.291L51.7626 323.527L52.2032 323.291C47.2308 314.02 39.0583 306.213 30.4018 303.357C26.0644 301.925 21.5914 301.733 17.3482 303.246C13.104 304.759 9.13901 307.959 5.78731 313.224C-0.22973 322.667 -1.63553 334.218 0.472832 344.788C2.58044 355.355 8.21129 364.998 16.341 370.608L16.3412 370.608C26.4828 377.597 37.4154 378.535 47.818 375.492C49.7663 374.922 51.6956 374.213 53.5978 373.378C52.7482 380.062 51.5406 386.726 50.3451 393.323C49.7152 396.799 49.0887 400.256 48.5196 403.688L49.0129 403.77L48.5196 403.689C46.4638 416.108 45.0215 430.423 46.2865 443.897C47.5511 457.367 51.5271 470.055 60.3625 479.155C68.7328 487.775 79.4809 490.113 89.9874 492.398C91.1879 492.659 92.3852 492.919 93.5755 493.188C105.22 495.82 116.269 499.272 123.633 511.969L124.065 511.718L123.633 511.969C131.602 525.705 132.687 541.456 129.627 556.503C126.567 571.551 119.365 585.861 110.812 596.668C101.507 608.418 90.6958 617.812 79.7427 627.078C78.9438 627.754 78.1441 628.429 77.3442 629.104C67.1866 637.68 56.9926 646.286 47.9143 656.665C29.5702 677.635 19.0034 705.962 18.4186 737.007C17.8463 767.068 27.3734 796.519 43.0284 819.609C58.0034 841.696 78.6136 858.002 101.403 863.42C102.065 870.951 102.68 878.462 102.62 885.997C102.468 904.255 97.1935 919.174 87.4343 932.517C83.8976 937.348 80.1657 941.921 76.4537 946.47C76.0298 946.989 75.6061 947.508 75.183 948.027C71.0588 953.089 66.9911 958.151 63.3013 963.513C55.916 974.245 50.0365 986.19 48.1869 1001.81C44.4435 1033.34 55.5355 1063.55 70.7129 1087.87L71.1371 1087.6L70.7131 1087.87C79.0932 1101.27 88.6644 1113.41 98.2169 1125.45C98.7323 1126.1 99.3782 1126.39 100.043 1126.33C100.682 1126.28 101.239 1125.9 101.634 1125.4C102.418 1124.43 102.724 1122.78 101.687 1121.48C81.9597 1096.6 60.9706 1070.09 54.3065 1035.11C50.9608 1017.52 51.4109 998.347 58.1546 982.102C63.2326 969.876 71.3241 960.306 79.3183 950.85C79.985 950.061 80.651 949.273 81.3146 948.485C89.3584 938.927 97.5977 928.818 102.434 916.029C108.051 901.23 107.889 884.869 106.735 869.02C106.624 867.491 106.501 865.953 106.372 864.407C127.461 867.575 152.104 856.522 158.461 828.762L157.974 828.651L158.461 828.762C160.999 817.661 158.834 805.172 153.542 795.793C148.253 786.42 139.758 780.035 129.61 781.439L129.679 781.934L129.61 781.439C119.697 782.814 112.493 790.661 107.682 800.694C102.864 810.74 100.385 823.088 99.9716 833.711C99.6576 841.735 100.216 849.72 100.898 857.676C99.8439 857.383 98.7912 857.06 97.7411 856.708C83.7755 852.025 70.329 842.289 60.0122 831.865C40.1127 811.754 26.0605 782.63 23.6239 750.563L23.1253 750.601L23.6239 750.563C20.9722 715.8 31.4544 683.09 52.1616 659.804L51.7879 659.472L52.1617 659.804C59.7199 651.298 69.2319 643.041 79.1401 634.439L80.136 633.574C90.3907 624.67 101.004 615.384 110.192 605.103C128.584 584.524 141.313 559.905 134.147 526.239C131.787 515.123 126.716 504.901 119.047 498.199L119.047 498.199C110.911 491.097 101.027 489 91.5134 486.982C89.8328 486.625 88.1639 486.271 86.5182 485.892C73.9258 482.989 62.0919 477.702 55.8474 462.867L55.8473 462.867C50.3444 449.82 49.8305 434.156 51.1833 419.704C51.9097 411.958 53.3156 403.909 54.7762 395.717L54.9902 394.518C56.382 386.72 57.795 378.804 58.6822 370.939C58.6871 370.895 58.692 370.851 58.6969 370.808C65.0196 367.206 70.9347 362.276 76.1072 356.569C92.1915 338.824 105.734 310.896 106.128 282.435C106.326 268.189 102.998 256.662 97.1825 247.362C91.3688 238.065 83.0869 231.021 73.4178 225.712C70.2181 223.951 66.9825 222.302 63.7718 220.665C45.2126 211.202 27.4832 202.162 22.3117 174.593C19.7566 160.95 19.8432 146.559 19.9284 132.396C19.9498 128.849 19.971 125.316 19.9507 121.813L19.6339 62.0647L15.6366 124.924ZM19.3171 2.31638C19.3171 2.31653 19.3171 2.31668 19.3171 2.31683L18.8171 2.31891M19.3171 2.31638C19.3171 2.31627 19.3171 2.31616 19.3171 2.31604L18.8171 2.31891M19.3171 2.31638C19.4304 22.1012 19.5312 41.9015 19.6319 61.6862L19.6339 62.0646L19.1339 62.0672L19.1319 61.6844C19.0312 41.901 18.9304 22.1022 18.8171 2.31891M53.8028 343.61C55.0069 351.381 54.97 359.216 54.2837 367.043C43.4849 372.639 31.7512 373.636 20.3064 366.661L20.0462 367.088L20.3063 366.661C8.94223 359.742 2.23451 345.108 4.91538 329.338L4.42245 329.254L4.91539 329.338C6.20468 321.748 9.67225 315.438 14.3177 311.654C18.9477 307.883 24.7569 306.608 30.8451 309.066C43.1598 314.037 51.4597 328.536 53.8028 343.61ZM138.506 851.308C128.522 859.129 117.214 860.89 105.897 858.829C104.806 846.032 103.841 832.863 106.435 820.216L105.945 820.115L106.435 820.216C107.771 813.693 109.975 806.803 113.2 800.987C116.427 795.167 120.651 790.469 126.005 788.25L125.814 787.788L126.006 788.25C132.279 785.646 138.369 787.281 143.351 791.47C148.345 795.669 152.196 802.42 153.887 809.938C157.614 826.504 149.609 842.617 138.507 851.307L138.815 851.701L138.506 851.308Z" stroke="#38009E"/>
<path d="M15.6366 124.924L15.1366 124.926L14.4904 2.28999L14.4828 0.856975L14.7088 1.13835C14.8326 0.798993 15.0122 0.506143 15.2368 0.265168C15.689 -0.220015 16.2973 -0.464844 16.9069 -0.464844C17.5164 -0.464844 18.1253 -0.220148 18.5802 0.263549C19.0374 0.749706 19.3134 1.44844 19.3171 2.31638M15.6366 124.924L18.8171 2.31891M15.6366 124.924L15.1366 124.926C15.151 127.612 15.1446 130.353 15.1382 133.132C15.1106 145.02 15.0815 157.603 16.6663 169.48C18.6225 184.139 23.0462 197.811 33.0346 207.854L33.3891 207.502L33.0346 207.854C40.9966 215.859 50.5478 220.419 59.9961 224.931C60.5506 225.196 61.1048 225.46 61.6583 225.726C71.664 230.519 81.4573 235.486 89.2565 244.65L89.2566 244.65C99.0275 256.122 102.096 271.319 101.045 286.803C99.9937 302.287 94.8258 318.004 88.195 330.439C81.2378 343.483 71.0062 356.3 59.3111 364.071C60.2798 349.89 59.0041 335.976 52.2032 323.291L51.7626 323.527L52.2032 323.291C47.2308 314.02 39.0583 306.213 30.4018 303.357C26.0644 301.925 21.5914 301.733 17.3482 303.246C13.104 304.759 9.13901 307.959 5.78731 313.224C-0.22973 322.667 -1.63553 334.218 0.472832 344.788C2.58044 355.355 8.21129 364.998 16.341 370.608L16.3412 370.608C26.4828 377.597 37.4154 378.535 47.818 375.492C49.7663 374.922 51.6956 374.213 53.5978 373.378C52.7482 380.062 51.5406 386.726 50.3451 393.323C49.7152 396.799 49.0887 400.256 48.5196 403.688L49.0129 403.77L48.5196 403.689C46.4638 416.108 45.0215 430.423 46.2865 443.897C47.5511 457.367 51.5271 470.055 60.3625 479.155C68.7328 487.775 79.4809 490.113 89.9874 492.398C91.1879 492.659 92.3852 492.919 93.5755 493.188C105.22 495.82 116.269 499.272 123.633 511.969L124.065 511.718L123.633 511.969C131.602 525.705 132.687 541.456 129.627 556.503C126.567 571.551 119.365 585.861 110.812 596.668C101.507 608.418 90.6958 617.812 79.7427 627.078C78.9438 627.754 78.1441 628.429 77.3442 629.104C67.1866 637.68 56.9926 646.286 47.9143 656.665C29.5702 677.635 19.0034 705.962 18.4186 737.007C17.8463 767.068 27.3734 796.519 43.0284 819.609C58.0034 841.696 78.6136 858.002 101.403 863.42C102.065 870.951 102.68 878.462 102.62 885.997C102.468 904.255 97.1935 919.174 87.4343 932.517C83.8976 937.348 80.1657 941.921 76.4537 946.47C76.0298 946.989 75.6061 947.508 75.183 948.027C71.0588 953.089 66.9911 958.151 63.3013 963.513C55.916 974.245 50.0365 986.19 48.1869 1001.81C44.4435 1033.34 55.5355 1063.55 70.7129 1087.87L71.1371 1087.6L70.7131 1087.87C79.0932 1101.27 88.6644 1113.41 98.2169 1125.45C98.7323 1126.1 99.3782 1126.39 100.043 1126.33C100.682 1126.28 101.239 1125.9 101.634 1125.4C102.418 1124.43 102.724 1122.78 101.687 1121.48C81.9597 1096.6 60.9706 1070.09 54.3065 1035.11C50.9608 1017.52 51.4109 998.347 58.1546 982.102C63.2326 969.876 71.3241 960.306 79.3183 950.85C79.985 950.061 80.651 949.273 81.3146 948.485C89.3584 938.927 97.5977 928.818 102.434 916.029C108.051 901.23 107.889 884.869 106.735 869.02C106.624 867.491 106.501 865.953 106.372 864.407C127.461 867.575 152.104 856.522 158.461 828.762L157.974 828.651L158.461 828.762C160.999 817.661 158.834 805.172 153.542 795.793C148.253 786.42 139.758 780.035 129.61 781.439L129.679 781.934L129.61 781.439C119.697 782.814 112.493 790.661 107.682 800.694C102.864 810.74 100.385 823.088 99.9716 833.711C99.6576 841.735 100.216 849.72 100.898 857.676C99.8439 857.383 98.7912 857.06 97.7411 856.708C83.7755 852.025 70.329 842.289 60.0122 831.865C40.1127 811.754 26.0605 782.63 23.6239 750.563L23.1253 750.601L23.6239 750.563C20.9722 715.8 31.4544 683.09 52.1616 659.804L51.7879 659.472L52.1617 659.804C59.7199 651.298 69.2319 643.041 79.1401 634.439L80.136 633.574C90.3907 624.67 101.004 615.384 110.192 605.103C128.584 584.524 141.313 559.905 134.147 526.239C131.787 515.123 126.716 504.901 119.047 498.199L119.047 498.199C110.911 491.097 101.027 489 91.5134 486.982C89.8328 486.625 88.1639 486.271 86.5182 485.892C73.9258 482.989 62.0919 477.702 55.8474 462.867L55.8473 462.867C50.3444 449.82 49.8305 434.156 51.1833 419.704C51.9097 411.958 53.3156 403.909 54.7762 395.717L54.9902 394.518C56.382 386.72 57.795 378.804 58.6822 370.939C58.6871 370.895 58.692 370.851 58.6969 370.808C65.0196 367.206 70.9347 362.276 76.1072 356.569C92.1915 338.824 105.734 310.896 106.128 282.435C106.326 268.189 102.998 256.662 97.1825 247.362C91.3688 238.065 83.0869 231.021 73.4178 225.712C70.2181 223.951 66.9825 222.302 63.7718 220.665C45.2126 211.202 27.4832 202.162 22.3117 174.593C19.7566 160.95 19.8432 146.559 19.9284 132.396C19.9498 128.849 19.971 125.316 19.9507 121.813L19.6339 62.0647L15.6366 124.924ZM19.3171 2.31638C19.3171 2.31653 19.3171 2.31668 19.3171 2.31683L18.8171 2.31891M19.3171 2.31638C19.3171 2.31627 19.3171 2.31616 19.3171 2.31604L18.8171 2.31891M19.3171 2.31638C19.4304 22.1012 19.5312 41.9015 19.6319 61.6862L19.6339 62.0646L19.1339 62.0672L19.1319 61.6844C19.0312 41.901 18.9304 22.1022 18.8171 2.31891M53.8028 343.61C55.0069 351.381 54.97 359.216 54.2837 367.043C43.4849 372.639 31.7512 373.636 20.3064 366.661L20.0462 367.088L20.3063 366.661C8.94223 359.742 2.23451 345.108 4.91538 329.338L4.42245 329.254L4.91539 329.338C6.20468 321.748 9.67225 315.438 14.3177 311.654C18.9477 307.883 24.7569 306.608 30.8451 309.066C43.1598 314.037 51.4597 328.536 53.8028 343.61ZM138.506 851.308C128.522 859.129 117.214 860.89 105.897 858.829C104.806 846.032 103.841 832.863 106.435 820.216L105.945 820.115L106.435 820.216C107.771 813.693 109.975 806.803 113.2 800.987C116.427 795.167 120.651 790.469 126.005 788.25L125.814 787.788L126.006 788.25C132.279 785.646 138.369 787.281 143.351 791.47C148.345 795.669 152.196 802.42 153.887 809.938C157.614 826.504 149.609 842.617 138.507 851.307L138.815 851.701L138.506 851.308Z" stroke="#38009E"/>
</g>
<path d="M117.368 1153.61C118.12 1153.81 118.864 1153.65 119.436 1153.18C120.008 1152.71 120.362 1151.96 120.419 1151.09L121.569 1133.69C121.626 1132.83 121.382 1131.92 120.89 1131.17C120.398 1130.42 119.698 1129.89 118.945 1129.69C118.192 1129.49 117.447 1129.65 116.874 1130.12C116.302 1130.6 115.948 1131.35 115.891 1132.21L115.262 1141.74L100.996 1119.97C100.504 1119.22 99.8051 1118.69 99.0523 1118.5C98.2995 1118.3 97.5549 1118.45 96.9823 1118.93C96.4097 1119.4 96.056 1120.15 95.999 1121.02C95.942 1121.88 96.1864 1122.79 96.6784 1123.54L110.944 1145.3L102.659 1143.14C102.286 1143.05 101.911 1143.03 101.556 1143.11C101.201 1143.18 100.872 1143.34 100.588 1143.58C100.305 1143.81 100.072 1144.11 99.903 1144.47C99.7342 1144.83 99.6328 1145.24 99.6046 1145.67C99.5764 1146.09 99.6218 1146.54 99.7385 1146.97C99.8551 1147.4 100.04 1147.82 100.284 1148.19C100.528 1148.56 100.825 1148.88 101.159 1149.14C101.492 1149.39 101.856 1149.57 102.229 1149.67L117.368 1153.61Z" fill="#38009E"/>
<defs>
<clipPath id="clip0_1219_2010">
<rect width="159" height="1125.81" fill="white"/>
</clipPath>
</defs>
</svg>
